<?xml version="1.0" encoding="utf-8"?>
<!-- Generator: Adobe Illustrator 16.0.0, SVG Export Plug-In . SVG Version: 6.00 Build 0)  -->
<!DOCTYPE svg PUBLIC "-//W3C//DTD SVG 1.1//EN" "http://www.w3.org/Graphics/SVG/1.1/DTD/svg11.dtd">
<svg version="1.1" id="Layer_1" xmlns="http://www.w3.org/2000/svg" xmlns:xlink="http://www.w3.org/1999/xlink" x="0px" y="0px"
	 width="960px" height="560px" viewBox="0 0 960 560" enable-background="new 0 0 960 560" xml:space="preserve">
<g>
	<g>
		<path fill="#333333" d="M551.413,304c20.913,0,37.87-15.58,37.87-36.5c0-20.921-16.957-36.5-37.87-36.5h-22.109l11.72-51.214
			c4.735-20.375-7.941-41.122-28.313-45.857c-20.376-4.747-40.725,8.537-45.458,28.912L451.544,231h-52.891l11.72-51.214
			c4.735-20.375-7.941-41.122-28.313-45.857c-20.376-4.747-40.725,8.537-45.458,28.912L320.896,231h-44.033
			c-20.918,0-37.872,15.579-37.872,36.5c0,20.92,16.954,36.5,37.872,36.5h26.426l-14.524,62h-44.092
			c-20.915,0-37.87,19.582-37.87,40.5c0,20.908,16.955,40.5,37.87,40.5h26.486l-12.958,53.924
			c-4.735,20.373,7.939,39.822,28.311,44.553c2.884,0.677,5.768,0.538,8.607,0.538c17.216,0,32.789-10.225,36.852-27.712
			L348.917,447h52.892l-12.959,53.924c-4.735,20.373,7.94,39.822,28.311,44.553c2.885,0.677,5.769,0.538,8.608,0.538
			c17.216,0,32.79-10.225,36.852-27.712L479.564,447h39.662c20.914,0,37.867-19.592,37.867-40.5c0-20.918-16.953-40.5-37.867-40.5
			h-22.058l14.529-62H551.413z M419.414,366h-52.892l14.525-62h52.889L419.414,366z"/>
		<path fill="#333333" d="M622.976,508.381c0,20.582-16.685,37.256-37.261,37.256c-20.577,0-37.26-16.674-37.26-37.256
			c0-20.577,16.683-37.26,37.26-37.26C606.291,471.121,622.976,487.804,622.976,508.381z"/>
		<g>
			<path fill="#C1272D" d="M387.879,507.831c0.074-2.465,0.389-2.196,0.97-4.709L395.958,476h-0.173l-6.936,26.651
				C388.229,505.32,387.925,505.21,387.879,507.831z"/>
			<path fill="#C1272D" d="M377.57,542.274c-8.058-12.788-10.603-27.166-7.15-42.021L376.33,476h-13.963l-11.951,52.077
				c-2.215,9.512-6.769,16.923-12.993,25.923h46.101C381.338,549,379.339,545.085,377.57,542.274z"/>
			<path fill="#C1272D" d="M265.308,476h-0.173l-6.934,26.651c-0.622,2.669-0.926,3.946-0.972,6.567
				c0.074-2.469,0.389-2.894,0.972-5.407L265.308,476z"/>
			<path fill="#C1272D" d="M493.019,476l-11.956,52.077c-2.212,9.512-6.766,16.923-12.99,25.923H544.2
				c-9.114-14-14.678-24.4-14.678-38.951c0-14.606,5.597-26.049,14.751-39.049H493.019z"/>
			<path fill="#C1272D" d="M762.224,209.383c-28.332-39.653-69.681-68.582-116.876-81.509
				c-15.817-29.052-37.694-54.819-64.081-75.021C539.824,21.131,490.283,4.365,438.002,4.365
				c-85.318,0-162.025,45.684-203.559,116.483c-51.009,3.564-98.473,25.142-134.984,61.653
				c-40.098,40.1-62.179,93.41-62.179,150.113c0,117.598,95.233,213.27,212.291,213.27c0.795,0,1.943,0.04,3.211,0.084
				c-11.864-13.263-17.329-31.852-13.01-50.426l6.003-25.48c-73.656-2.051-132.756-63.294-132.756-137.443
				c0-75.413,61.136-136.552,136.552-136.552c11.49,0,22.64,1.43,33.299,4.103c17.816-69.048,80.514-120.064,155.132-120.064
				c73.144,0,134.799,49.041,153.985,116.022c59.264,1.111,109.271,39.953,127.018,93.533c9.438-3.254,19.554-5.046,30.096-5.046
				c50.979,0,92.31,41.815,92.31,92.795c0,50.981-33.174,99.653-84.153,99.653c-3.883,0-15.847-1.062-19.605-1.062H627.15
				c9.16,13,14.758,24.442,14.758,39.049c0,14.551-5.565,24.951-14.678,38.951h110.421c3.073,0,6.857,0,9.072,0
				c16.619,0,9.788-1.877,10.533-1.877c92.66,0,159.892-80.729,159.892-173.659C917.148,289.96,848.77,216.122,762.224,209.383z"/>
		</g>
	</g>
</g>
</svg>
